<svg xmlns="http://www.w3.org/2000/svg" width="180" height="180" viewBox="0 0 180 180" shape-rendering="crispEdges"><rect x="0" y="0" width="180" height="180" rx="36" fill="#fce8c4"></rect><rect x="108" y="18" width="9.3" height="9.3" fill="#c4633a" shape-rendering="crispEdges"></rect><rect x="90" y="27" width="9.3" height="9.3" fill="#c4633a" shape-rendering="crispEdges"></rect><rect x="99" y="27" width="9.3" height="9.3" fill="#c4633a" shape-rendering="crispEdges"></rect><rect x="117" y="27" width="9.3" height="9.3" fill="#c4633a" shape-rendering="crispEdges"></rect><rect x="81" y="36" width="9.3" height="9.3" fill="#c4633a" shape-rendering="crispEdges"></rect><rect x="99" y="36" width="9.3" height="9.3" fill="#c4633a" shape-rendering="crispEdges"></rect><rect x="90" y="45" width="9.3" height="9.3" fill="#1a0f08" shape-rendering="crispEdges"></rect><rect x="99" y="45" width="9.3" height="9.3" fill="#1a0f08" shape-rendering="crispEdges"></rect><rect x="72" y="54" width="9.3" height="9.3" fill="#1a0f08" shape-rendering="crispEdges"></rect><rect x="81" y="54" width="9.3" height="9.3" fill="#1a0f08" shape-rendering="crispEdges"></rect><rect x="90" y="54" width="9.3" height="9.3" fill="#1a0f08" shape-rendering="crispEdges"></rect><rect x="99" y="54" width="9.3" height="9.3" fill="#1a0f08" shape-rendering="crispEdges"></rect><rect x="63" y="63" width="9.3" height="9.3" fill="#1a0f08" shape-rendering="crispEdges"></rect><rect x="72" y="63" width="9.3" height="9.3" fill="#1a0f08" shape-rendering="crispEdges"></rect><rect x="81" y="63" width="9.3" height="9.3" fill="#8a3520" shape-rendering="crispEdges"></rect><rect x="90" y="63" width="9.3" height="9.3" fill="#8a3520" shape-rendering="crispEdges"></rect><rect x="99" y="63" width="9.3" height="9.3" fill="#1a0f08" shape-rendering="crispEdges"></rect><rect x="108" y="63" width="9.3" height="9.3" fill="#1a0f08" shape-rendering="crispEdges"></rect><rect x="54" y="72" width="9.3" height="9.3" fill="#1a0f08" shape-rendering="crispEdges"></rect><rect x="63" y="72" width="9.3" height="9.3" fill="#1a0f08" shape-rendering="crispEdges"></rect><rect x="72" y="72" width="9.3" height="9.3" fill="#8a3520" shape-rendering="crispEdges"></rect><rect x="81" y="72" width="9.3" height="9.3" fill="#8a3520" shape-rendering="crispEdges"></rect><rect x="90" y="72" width="9.3" height="9.3" fill="#8a3520" shape-rendering="crispEdges"></rect><rect x="99" y="72" width="9.3" height="9.3" fill="#8a3520" shape-rendering="crispEdges"></rect><rect x="108" y="72" width="9.3" height="9.3" fill="#1a0f08" shape-rendering="crispEdges"></rect><rect x="117" y="72" width="9.3" height="9.3" fill="#1a0f08" shape-rendering="crispEdges"></rect><rect x="45" y="81" width="9.3" height="9.3" fill="#1a0f08" shape-rendering="crispEdges"></rect><rect x="54" y="81" width="9.3" height="9.3" fill="#1a0f08" shape-rendering="crispEdges"></rect><rect x="63" y="81" width="9.3" height="9.3" fill="#8a3520" shape-rendering="crispEdges"></rect><rect x="72" y="81" width="9.3" height="9.3" fill="#8a3520" shape-rendering="crispEdges"></rect><rect x="81" y="81" width="9.3" height="9.3" fill="#8a3520" shape-rendering="crispEdges"></rect><rect x="90" y="81" width="9.3" height="9.3" fill="#8a3520" shape-rendering="crispEdges"></rect><rect x="99" y="81" width="9.3" height="9.3" fill="#8a3520" shape-rendering="crispEdges"></rect><rect x="108" y="81" width="9.3" height="9.3" fill="#8a3520" shape-rendering="crispEdges"></rect><rect x="117" y="81" width="9.3" height="9.3" fill="#1a0f08" shape-rendering="crispEdges"></rect><rect x="126" y="81" width="9.3" height="9.3" fill="#1a0f08" shape-rendering="crispEdges"></rect><rect x="36" y="90" width="9.3" height="9.3" fill="#1a0f08" shape-rendering="crispEdges"></rect><rect x="45" y="90" width="9.3" height="9.3" fill="#1a0f08" shape-rendering="crispEdges"></rect><rect x="54" y="90" width="9.3" height="9.3" fill="#8a3520" shape-rendering="crispEdges"></rect><rect x="63" y="90" width="9.3" height="9.3" fill="#8a3520" shape-rendering="crispEdges"></rect><rect x="72" y="90" width="9.3" height="9.3" fill="#8a3520" shape-rendering="crispEdges"></rect><rect x="81" y="90" width="9.3" height="9.3" fill="#8a3520" shape-rendering="crispEdges"></rect><rect x="90" y="90" width="9.3" height="9.3" fill="#8a3520" shape-rendering="crispEdges"></rect><rect x="99" y="90" width="9.3" height="9.3" fill="#8a3520" shape-rendering="crispEdges"></rect><rect x="108" y="90" width="9.3" height="9.3" fill="#8a3520" shape-rendering="crispEdges"></rect><rect x="117" y="90" width="9.3" height="9.3" fill="#8a3520" shape-rendering="crispEdges"></rect><rect x="126" y="90" width="9.3" height="9.3" fill="#1a0f08" shape-rendering="crispEdges"></rect><rect x="135" y="90" width="9.3" height="9.3" fill="#1a0f08" shape-rendering="crispEdges"></rect><rect x="27" y="99" width="9.3" height="9.3" fill="#1a0f08" shape-rendering="crispEdges"></rect><rect x="36" y="99" width="9.3" height="9.3" fill="#1a0f08" shape-rendering="crispEdges"></rect><rect x="45" y="99" width="9.3" height="9.3" fill="#8a3520" shape-rendering="crispEdges"></rect><rect x="54" y="99" width="9.3" height="9.3" fill="#8a3520" shape-rendering="crispEdges"></rect><rect x="63" y="99" width="9.3" height="9.3" fill="#8a3520" shape-rendering="crispEdges"></rect><rect x="72" y="99" width="9.3" height="9.3" fill="#8a3520" shape-rendering="crispEdges"></rect><rect x="81" y="99" width="9.3" height="9.3" fill="#8a3520" shape-rendering="crispEdges"></rect><rect x="90" y="99" width="9.3" height="9.3" fill="#8a3520" shape-rendering="crispEdges"></rect><rect x="99" y="99" width="9.3" height="9.3" fill="#8a3520" shape-rendering="crispEdges"></rect><rect x="108" y="99" width="9.3" height="9.3" fill="#8a3520" shape-rendering="crispEdges"></rect><rect x="117" y="99" width="9.3" height="9.3" fill="#8a3520" shape-rendering="crispEdges"></rect><rect x="126" y="99" width="9.3" height="9.3" fill="#8a3520" shape-rendering="crispEdges"></rect><rect x="135" y="99" width="9.3" height="9.3" fill="#1a0f08" shape-rendering="crispEdges"></rect><rect x="144" y="99" width="9.3" height="9.3" fill="#1a0f08" shape-rendering="crispEdges"></rect><rect x="27" y="108" width="9.3" height="9.3" fill="#1a0f08" shape-rendering="crispEdges"></rect><rect x="36" y="108" width="9.3" height="9.3" fill="#7a4a2a" shape-rendering="crispEdges"></rect><rect x="45" y="108" width="9.3" height="9.3" fill="#7a4a2a" shape-rendering="crispEdges"></rect><rect x="54" y="108" width="9.3" height="9.3" fill="#7a4a2a" shape-rendering="crispEdges"></rect><rect x="63" y="108" width="9.3" height="9.3" fill="#7a4a2a" shape-rendering="crispEdges"></rect><rect x="72" y="108" width="9.3" height="9.3" fill="#7a4a2a" shape-rendering="crispEdges"></rect><rect x="81" y="108" width="9.3" height="9.3" fill="#7a4a2a" shape-rendering="crispEdges"></rect><rect x="90" y="108" width="9.3" height="9.3" fill="#7a4a2a" shape-rendering="crispEdges"></rect><rect x="99" y="108" width="9.3" height="9.3" fill="#7a4a2a" shape-rendering="crispEdges"></rect><rect x="108" y="108" width="9.3" height="9.3" fill="#7a4a2a" shape-rendering="crispEdges"></rect><rect x="117" y="108" width="9.3" height="9.3" fill="#7a4a2a" shape-rendering="crispEdges"></rect><rect x="126" y="108" width="9.3" height="9.3" fill="#7a4a2a" shape-rendering="crispEdges"></rect><rect x="135" y="108" width="9.3" height="9.3" fill="#7a4a2a" shape-rendering="crispEdges"></rect><rect x="144" y="108" width="9.3" height="9.3" fill="#1a0f08" shape-rendering="crispEdges"></rect><rect x="27" y="117" width="9.3" height="9.3" fill="#1a0f08" shape-rendering="crispEdges"></rect><rect x="36" y="117" width="9.3" height="9.3" fill="#7a4a2a" shape-rendering="crispEdges"></rect><rect x="45" y="117" width="9.3" height="9.3" fill="#c4633a" shape-rendering="crispEdges"></rect><rect x="54" y="117" width="9.3" height="9.3" fill="#c4633a" shape-rendering="crispEdges"></rect><rect x="63" y="117" width="9.3" height="9.3" fill="#7a4a2a" shape-rendering="crispEdges"></rect><rect x="72" y="117" width="9.3" height="9.3" fill="#7a4a2a" shape-rendering="crispEdges"></rect><rect x="81" y="117" width="9.3" height="9.3" fill="#1a0f08" shape-rendering="crispEdges"></rect><rect x="90" y="117" width="9.3" height="9.3" fill="#1a0f08" shape-rendering="crispEdges"></rect><rect x="99" y="117" width="9.3" height="9.3" fill="#7a4a2a" shape-rendering="crispEdges"></rect><rect x="108" y="117" width="9.3" height="9.3" fill="#7a4a2a" shape-rendering="crispEdges"></rect><rect x="117" y="117" width="9.3" height="9.3" fill="#c4633a" shape-rendering="crispEdges"></rect><rect x="126" y="117" width="9.3" height="9.3" fill="#c4633a" shape-rendering="crispEdges"></rect><rect x="135" y="117" width="9.3" height="9.3" fill="#7a4a2a" shape-rendering="crispEdges"></rect><rect x="144" y="117" width="9.3" height="9.3" fill="#1a0f08" shape-rendering="crispEdges"></rect><rect x="27" y="126" width="9.3" height="9.3" fill="#1a0f08" shape-rendering="crispEdges"></rect><rect x="36" y="126" width="9.3" height="9.3" fill="#7a4a2a" shape-rendering="crispEdges"></rect><rect x="45" y="126" width="9.3" height="9.3" fill="#c4633a" shape-rendering="crispEdges"></rect><rect x="54" y="126" width="9.3" height="9.3" fill="#c4633a" shape-rendering="crispEdges"></rect><rect x="63" y="126" width="9.3" height="9.3" fill="#7a4a2a" shape-rendering="crispEdges"></rect><rect x="72" y="126" width="9.3" height="9.3" fill="#7a4a2a" shape-rendering="crispEdges"></rect><rect x="81" y="126" width="9.3" height="9.3" fill="#1a0f08" shape-rendering="crispEdges"></rect><rect x="90" y="126" width="9.3" height="9.3" fill="#1a0f08" shape-rendering="crispEdges"></rect><rect x="99" y="126" width="9.3" height="9.3" fill="#7a4a2a" shape-rendering="crispEdges"></rect><rect x="108" y="126" width="9.3" height="9.3" fill="#7a4a2a" shape-rendering="crispEdges"></rect><rect x="117" y="126" width="9.3" height="9.3" fill="#c4633a" shape-rendering="crispEdges"></rect><rect x="126" y="126" width="9.3" height="9.3" fill="#c4633a" shape-rendering="crispEdges"></rect><rect x="135" y="126" width="9.3" height="9.3" fill="#7a4a2a" shape-rendering="crispEdges"></rect><rect x="144" y="126" width="9.3" height="9.3" fill="#1a0f08" shape-rendering="crispEdges"></rect><rect x="27" y="135" width="9.3" height="9.3" fill="#1a0f08" shape-rendering="crispEdges"></rect><rect x="36" y="135" width="9.3" height="9.3" fill="#7a4a2a" shape-rendering="crispEdges"></rect><rect x="45" y="135" width="9.3" height="9.3" fill="#7a4a2a" shape-rendering="crispEdges"></rect><rect x="54" y="135" width="9.3" height="9.3" fill="#7a4a2a" shape-rendering="crispEdges"></rect><rect x="63" y="135" width="9.3" height="9.3" fill="#7a4a2a" shape-rendering="crispEdges"></rect><rect x="72" y="135" width="9.3" height="9.3" fill="#7a4a2a" shape-rendering="crispEdges"></rect><rect x="81" y="135" width="9.3" height="9.3" fill="#1a0f08" shape-rendering="crispEdges"></rect><rect x="90" y="135" width="9.3" height="9.3" fill="#1a0f08" shape-rendering="crispEdges"></rect><rect x="99" y="135" width="9.3" height="9.3" fill="#7a4a2a" shape-rendering="crispEdges"></rect><rect x="108" y="135" width="9.3" height="9.3" fill="#7a4a2a" shape-rendering="crispEdges"></rect><rect x="117" y="135" width="9.3" height="9.3" fill="#7a4a2a" shape-rendering="crispEdges"></rect><rect x="126" y="135" width="9.3" height="9.3" fill="#7a4a2a" shape-rendering="crispEdges"></rect><rect x="135" y="135" width="9.3" height="9.3" fill="#7a4a2a" shape-rendering="crispEdges"></rect><rect x="144" y="135" width="9.3" height="9.3" fill="#1a0f08" shape-rendering="crispEdges"></rect><rect x="27" y="144" width="9.3" height="9.3" fill="#1a0f08" shape-rendering="crispEdges"></rect><rect x="36" y="144" width="9.3" height="9.3" fill="#1a0f08" shape-rendering="crispEdges"></rect><rect x="45" y="144" width="9.3" height="9.3" fill="#1a0f08" shape-rendering="crispEdges"></rect><rect x="54" y="144" width="9.3" height="9.3" fill="#1a0f08" shape-rendering="crispEdges"></rect><rect x="63" y="144" width="9.3" height="9.3" fill="#1a0f08" shape-rendering="crispEdges"></rect><rect x="72" y="144" width="9.3" height="9.3" fill="#1a0f08" shape-rendering="crispEdges"></rect><rect x="81" y="144" width="9.3" height="9.3" fill="#1a0f08" shape-rendering="crispEdges"></rect><rect x="90" y="144" width="9.3" height="9.3" fill="#1a0f08" shape-rendering="crispEdges"></rect><rect x="99" y="144" width="9.3" height="9.3" fill="#1a0f08" shape-rendering="crispEdges"></rect><rect x="108" y="144" width="9.3" height="9.3" fill="#1a0f08" shape-rendering="crispEdges"></rect><rect x="117" y="144" width="9.3" height="9.3" fill="#1a0f08" shape-rendering="crispEdges"></rect><rect x="126" y="144" width="9.3" height="9.3" fill="#1a0f08" shape-rendering="crispEdges"></rect><rect x="135" y="144" width="9.3" height="9.3" fill="#1a0f08" shape-rendering="crispEdges"></rect><rect x="144" y="144" width="9.3" height="9.3" fill="#1a0f08" shape-rendering="crispEdges"></rect></svg>