<svg xmlns="http://www.w3.org/2000/svg" width="512" height="512" viewBox="0 0 512 512" shape-rendering="crispEdges"><rect x="0" y="0" width="512" height="512" rx="0" fill="#1a0f08"></rect><rect x="300" y="80" width="22.3" height="22.3" fill="#f4b860" shape-rendering="crispEdges"></rect><rect x="256" y="102" width="22.3" height="22.3" fill="#f4b860" shape-rendering="crispEdges"></rect><rect x="278" y="102" width="22.3" height="22.3" fill="#f4b860" shape-rendering="crispEdges"></rect><rect x="322" y="102" width="22.3" height="22.3" fill="#f4b860" shape-rendering="crispEdges"></rect><rect x="234" y="124" width="22.3" height="22.3" fill="#f4b860" shape-rendering="crispEdges"></rect><rect x="278" y="124" width="22.3" height="22.3" fill="#f4b860" shape-rendering="crispEdges"></rect><rect x="256" y="146" width="22.3" height="22.3" fill="#1a0f08" shape-rendering="crispEdges"></rect><rect x="278" y="146" width="22.3" height="22.3" fill="#1a0f08" shape-rendering="crispEdges"></rect><rect x="212" y="168" width="22.3" height="22.3" fill="#1a0f08" shape-rendering="crispEdges"></rect><rect x="234" y="168" width="22.3" height="22.3" fill="#1a0f08" shape-rendering="crispEdges"></rect><rect x="256" y="168" width="22.3" height="22.3" fill="#1a0f08" shape-rendering="crispEdges"></rect><rect x="278" y="168" width="22.3" height="22.3" fill="#1a0f08" shape-rendering="crispEdges"></rect><rect x="190" y="190" width="22.3" height="22.3" fill="#1a0f08" shape-rendering="crispEdges"></rect><rect x="212" y="190" width="22.3" height="22.3" fill="#1a0f08" shape-rendering="crispEdges"></rect><rect x="234" y="190" width="22.3" height="22.3" fill="#c4633a" shape-rendering="crispEdges"></rect><rect x="256" y="190" width="22.3" height="22.3" fill="#c4633a" shape-rendering="crispEdges"></rect><rect x="278" y="190" width="22.3" height="22.3" fill="#1a0f08" shape-rendering="crispEdges"></rect><rect x="300" y="190" width="22.3" height="22.3" fill="#1a0f08" shape-rendering="crispEdges"></rect><rect x="168" y="212" width="22.3" height="22.3" fill="#1a0f08" shape-rendering="crispEdges"></rect><rect x="190" y="212" width="22.3" height="22.3" fill="#1a0f08" shape-rendering="crispEdges"></rect><rect x="212" y="212" width="22.3" height="22.3" fill="#c4633a" shape-rendering="crispEdges"></rect><rect x="234" y="212" width="22.3" height="22.3" fill="#c4633a" shape-rendering="crispEdges"></rect><rect x="256" y="212" width="22.3" height="22.3" fill="#c4633a" shape-rendering="crispEdges"></rect><rect x="278" y="212" width="22.3" height="22.3" fill="#c4633a" shape-rendering="crispEdges"></rect><rect x="300" y="212" width="22.3" height="22.3" fill="#1a0f08" shape-rendering="crispEdges"></rect><rect x="322" y="212" width="22.3" height="22.3" fill="#1a0f08" shape-rendering="crispEdges"></rect><rect x="146" y="234" width="22.3" height="22.3" fill="#1a0f08" shape-rendering="crispEdges"></rect><rect x="168" y="234" width="22.3" height="22.3" fill="#1a0f08" shape-rendering="crispEdges"></rect><rect x="190" y="234" width="22.3" height="22.3" fill="#c4633a" shape-rendering="crispEdges"></rect><rect x="212" y="234" width="22.3" height="22.3" fill="#c4633a" shape-rendering="crispEdges"></rect><rect x="234" y="234" width="22.3" height="22.3" fill="#c4633a" shape-rendering="crispEdges"></rect><rect x="256" y="234" width="22.3" height="22.3" fill="#c4633a" shape-rendering="crispEdges"></rect><rect x="278" y="234" width="22.3" height="22.3" fill="#c4633a" shape-rendering="crispEdges"></rect><rect x="300" y="234" width="22.3" height="22.3" fill="#c4633a" shape-rendering="crispEdges"></rect><rect x="322" y="234" width="22.3" height="22.3" fill="#1a0f08" shape-rendering="crispEdges"></rect><rect x="344" y="234" width="22.3" height="22.3" fill="#1a0f08" shape-rendering="crispEdges"></rect><rect x="124" y="256" width="22.3" height="22.3" fill="#1a0f08" shape-rendering="crispEdges"></rect><rect x="146" y="256" width="22.3" height="22.3" fill="#1a0f08" shape-rendering="crispEdges"></rect><rect x="168" y="256" width="22.3" height="22.3" fill="#c4633a" shape-rendering="crispEdges"></rect><rect x="190" y="256" width="22.3" height="22.3" fill="#c4633a" shape-rendering="crispEdges"></rect><rect x="212" y="256" width="22.3" height="22.3" fill="#c4633a" shape-rendering="crispEdges"></rect><rect x="234" y="256" width="22.3" height="22.3" fill="#c4633a" shape-rendering="crispEdges"></rect><rect x="256" y="256" width="22.3" height="22.3" fill="#c4633a" shape-rendering="crispEdges"></rect><rect x="278" y="256" width="22.3" height="22.3" fill="#c4633a" shape-rendering="crispEdges"></rect><rect x="300" y="256" width="22.3" height="22.3" fill="#c4633a" shape-rendering="crispEdges"></rect><rect x="322" y="256" width="22.3" height="22.3" fill="#c4633a" shape-rendering="crispEdges"></rect><rect x="344" y="256" width="22.3" height="22.3" fill="#1a0f08" shape-rendering="crispEdges"></rect><rect x="366" y="256" width="22.3" height="22.3" fill="#1a0f08" shape-rendering="crispEdges"></rect><rect x="102" y="278" width="22.3" height="22.3" fill="#1a0f08" shape-rendering="crispEdges"></rect><rect x="124" y="278" width="22.3" height="22.3" fill="#1a0f08" shape-rendering="crispEdges"></rect><rect x="146" y="278" width="22.3" height="22.3" fill="#c4633a" shape-rendering="crispEdges"></rect><rect x="168" y="278" width="22.3" height="22.3" fill="#c4633a" shape-rendering="crispEdges"></rect><rect x="190" y="278" width="22.3" height="22.3" fill="#c4633a" shape-rendering="crispEdges"></rect><rect x="212" y="278" width="22.3" height="22.3" fill="#c4633a" shape-rendering="crispEdges"></rect><rect x="234" y="278" width="22.3" height="22.3" fill="#c4633a" shape-rendering="crispEdges"></rect><rect x="256" y="278" width="22.3" height="22.3" fill="#c4633a" shape-rendering="crispEdges"></rect><rect x="278" y="278" width="22.3" height="22.3" fill="#c4633a" shape-rendering="crispEdges"></rect><rect x="300" y="278" width="22.3" height="22.3" fill="#c4633a" shape-rendering="crispEdges"></rect><rect x="322" y="278" width="22.3" height="22.3" fill="#c4633a" shape-rendering="crispEdges"></rect><rect x="344" y="278" width="22.3" height="22.3" fill="#c4633a" shape-rendering="crispEdges"></rect><rect x="366" y="278" width="22.3" height="22.3" fill="#1a0f08" shape-rendering="crispEdges"></rect><rect x="388" y="278" width="22.3" height="22.3" fill="#1a0f08" shape-rendering="crispEdges"></rect><rect x="102" y="300" width="22.3" height="22.3" fill="#1a0f08" shape-rendering="crispEdges"></rect><rect x="124" y="300" width="22.3" height="22.3" fill="#7a4a2a" shape-rendering="crispEdges"></rect><rect x="146" y="300" width="22.3" height="22.3" fill="#7a4a2a" shape-rendering="crispEdges"></rect><rect x="168" y="300" width="22.3" height="22.3" fill="#7a4a2a" shape-rendering="crispEdges"></rect><rect x="190" y="300" width="22.3" height="22.3" fill="#7a4a2a" shape-rendering="crispEdges"></rect><rect x="212" y="300" width="22.3" height="22.3" fill="#7a4a2a" shape-rendering="crispEdges"></rect><rect x="234" y="300" width="22.3" height="22.3" fill="#7a4a2a" shape-rendering="crispEdges"></rect><rect x="256" y="300" width="22.3" height="22.3" fill="#7a4a2a" shape-rendering="crispEdges"></rect><rect x="278" y="300" width="22.3" height="22.3" fill="#7a4a2a" shape-rendering="crispEdges"></rect><rect x="300" y="300" width="22.3" height="22.3" fill="#7a4a2a" shape-rendering="crispEdges"></rect><rect x="322" y="300" width="22.3" height="22.3" fill="#7a4a2a" shape-rendering="crispEdges"></rect><rect x="344" y="300" width="22.3" height="22.3" fill="#7a4a2a" shape-rendering="crispEdges"></rect><rect x="366" y="300" width="22.3" height="22.3" fill="#7a4a2a" shape-rendering="crispEdges"></rect><rect x="388" y="300" width="22.3" height="22.3" fill="#1a0f08" shape-rendering="crispEdges"></rect><rect x="102" y="322" width="22.3" height="22.3" fill="#1a0f08" shape-rendering="crispEdges"></rect><rect x="124" y="322" width="22.3" height="22.3" fill="#7a4a2a" shape-rendering="crispEdges"></rect><rect x="146" y="322" width="22.3" height="22.3" fill="#f4b860" shape-rendering="crispEdges"></rect><rect x="168" y="322" width="22.3" height="22.3" fill="#f4b860" shape-rendering="crispEdges"></rect><rect x="190" y="322" width="22.3" height="22.3" fill="#7a4a2a" shape-rendering="crispEdges"></rect><rect x="212" y="322" width="22.3" height="22.3" fill="#7a4a2a" shape-rendering="crispEdges"></rect><rect x="234" y="322" width="22.3" height="22.3" fill="#1a0f08" shape-rendering="crispEdges"></rect><rect x="256" y="322" width="22.3" height="22.3" fill="#1a0f08" shape-rendering="crispEdges"></rect><rect x="278" y="322" width="22.3" height="22.3" fill="#7a4a2a" shape-rendering="crispEdges"></rect><rect x="300" y="322" width="22.3" height="22.3" fill="#7a4a2a" shape-rendering="crispEdges"></rect><rect x="322" y="322" width="22.3" height="22.3" fill="#f4b860" shape-rendering="crispEdges"></rect><rect x="344" y="322" width="22.3" height="22.3" fill="#f4b860" shape-rendering="crispEdges"></rect><rect x="366" y="322" width="22.3" height="22.3" fill="#7a4a2a" shape-rendering="crispEdges"></rect><rect x="388" y="322" width="22.3" height="22.3" fill="#1a0f08" shape-rendering="crispEdges"></rect><rect x="102" y="344" width="22.3" height="22.3" fill="#1a0f08" shape-rendering="crispEdges"></rect><rect x="124" y="344" width="22.3" height="22.3" fill="#7a4a2a" shape-rendering="crispEdges"></rect><rect x="146" y="344" width="22.3" height="22.3" fill="#f4b860" shape-rendering="crispEdges"></rect><rect x="168" y="344" width="22.3" height="22.3" fill="#f4b860" shape-rendering="crispEdges"></rect><rect x="190" y="344" width="22.3" height="22.3" fill="#7a4a2a" shape-rendering="crispEdges"></rect><rect x="212" y="344" width="22.3" height="22.3" fill="#7a4a2a" shape-rendering="crispEdges"></rect><rect x="234" y="344" width="22.3" height="22.3" fill="#1a0f08" shape-rendering="crispEdges"></rect><rect x="256" y="344" width="22.3" height="22.3" fill="#1a0f08" shape-rendering="crispEdges"></rect><rect x="278" y="344" width="22.3" height="22.3" fill="#7a4a2a" shape-rendering="crispEdges"></rect><rect x="300" y="344" width="22.3" height="22.3" fill="#7a4a2a" shape-rendering="crispEdges"></rect><rect x="322" y="344" width="22.3" height="22.3" fill="#f4b860" shape-rendering="crispEdges"></rect><rect x="344" y="344" width="22.3" height="22.3" fill="#f4b860" shape-rendering="crispEdges"></rect><rect x="366" y="344" width="22.3" height="22.3" fill="#7a4a2a" shape-rendering="crispEdges"></rect><rect x="388" y="344" width="22.3" height="22.3" fill="#1a0f08" shape-rendering="crispEdges"></rect><rect x="102" y="366" width="22.3" height="22.3" fill="#1a0f08" shape-rendering="crispEdges"></rect><rect x="124" y="366" width="22.3" height="22.3" fill="#7a4a2a" shape-rendering="crispEdges"></rect><rect x="146" y="366" width="22.3" height="22.3" fill="#7a4a2a" shape-rendering="crispEdges"></rect><rect x="168" y="366" width="22.3" height="22.3" fill="#7a4a2a" shape-rendering="crispEdges"></rect><rect x="190" y="366" width="22.3" height="22.3" fill="#7a4a2a" shape-rendering="crispEdges"></rect><rect x="212" y="366" width="22.3" height="22.3" fill="#7a4a2a" shape-rendering="crispEdges"></rect><rect x="234" y="366" width="22.3" height="22.3" fill="#1a0f08" shape-rendering="crispEdges"></rect><rect x="256" y="366" width="22.3" height="22.3" fill="#1a0f08" shape-rendering="crispEdges"></rect><rect x="278" y="366" width="22.3" height="22.3" fill="#7a4a2a" shape-rendering="crispEdges"></rect><rect x="300" y="366" width="22.3" height="22.3" fill="#7a4a2a" shape-rendering="crispEdges"></rect><rect x="322" y="366" width="22.3" height="22.3" fill="#7a4a2a" shape-rendering="crispEdges"></rect><rect x="344" y="366" width="22.3" height="22.3" fill="#7a4a2a" shape-rendering="crispEdges"></rect><rect x="366" y="366" width="22.3" height="22.3" fill="#7a4a2a" shape-rendering="crispEdges"></rect><rect x="388" y="366" width="22.3" height="22.3" fill="#1a0f08" shape-rendering="crispEdges"></rect><rect x="102" y="388" width="22.3" height="22.3" fill="#1a0f08" shape-rendering="crispEdges"></rect><rect x="124" y="388" width="22.3" height="22.3" fill="#1a0f08" shape-rendering="crispEdges"></rect><rect x="146" y="388" width="22.3" height="22.3" fill="#1a0f08" shape-rendering="crispEdges"></rect><rect x="168" y="388" width="22.3" height="22.3" fill="#1a0f08" shape-rendering="crispEdges"></rect><rect x="190" y="388" width="22.3" height="22.3" fill="#1a0f08" shape-rendering="crispEdges"></rect><rect x="212" y="388" width="22.3" height="22.3" fill="#1a0f08" shape-rendering="crispEdges"></rect><rect x="234" y="388" width="22.3" height="22.3" fill="#1a0f08" shape-rendering="crispEdges"></rect><rect x="256" y="388" width="22.3" height="22.3" fill="#1a0f08" shape-rendering="crispEdges"></rect><rect x="278" y="388" width="22.3" height="22.3" fill="#1a0f08" shape-rendering="crispEdges"></rect><rect x="300" y="388" width="22.3" height="22.3" fill="#1a0f08" shape-rendering="crispEdges"></rect><rect x="322" y="388" width="22.3" height="22.3" fill="#1a0f08" shape-rendering="crispEdges"></rect><rect x="344" y="388" width="22.3" height="22.3" fill="#1a0f08" shape-rendering="crispEdges"></rect><rect x="366" y="388" width="22.3" height="22.3" fill="#1a0f08" shape-rendering="crispEdges"></rect><rect x="388" y="388" width="22.3" height="22.3" fill="#1a0f08" shape-rendering="crispEdges"></rect></svg>