<svg xmlns="http://www.w3.org/2000/svg" width="512" height="512" viewBox="0 0 512 512" shape-rendering="crispEdges"><defs><radialGradient id="glow" cx="50%" cy="50%" r="50%"><stop offset="0%" stop-color="#f4b860" stop-opacity="0.35"></stop><stop offset="60%" stop-color="#f4b860" stop-opacity="0.08"></stop><stop offset="100%" stop-color="#f4b860" stop-opacity="0"></stop></radialGradient></defs><rect x="0" y="0" width="512" height="512" rx="102" fill="#1a0f08"></rect><rect x="0" y="0" width="512" height="512" rx="102" fill="url(#glow)"></rect><rect x="307.25" y="51" width="25.925" height="25.925" fill="#f4b860" shape-rendering="crispEdges"></rect><rect x="256" y="76.625" width="25.925" height="25.925" fill="#f4b860" shape-rendering="crispEdges"></rect><rect x="281.625" y="76.625" width="25.925" height="25.925" fill="#f4b860" shape-rendering="crispEdges"></rect><rect x="332.875" y="76.625" width="25.925" height="25.925" fill="#f4b860" shape-rendering="crispEdges"></rect><rect x="230.375" y="102.25" width="25.925" height="25.925" fill="#f4b860" shape-rendering="crispEdges"></rect><rect x="281.625" y="102.25" width="25.925" height="25.925" fill="#f4b860" shape-rendering="crispEdges"></rect><rect x="256" y="127.875" width="25.925" height="25.925" fill="#1a0f08" shape-rendering="crispEdges"></rect><rect x="281.625" y="127.875" width="25.925" height="25.925" fill="#1a0f08" shape-rendering="crispEdges"></rect><rect x="204.75" y="153.5" width="25.925" height="25.925" fill="#1a0f08" shape-rendering="crispEdges"></rect><rect x="230.375" y="153.5" width="25.925" height="25.925" fill="#1a0f08" shape-rendering="crispEdges"></rect><rect x="256" y="153.5" width="25.925" height="25.925" fill="#1a0f08" shape-rendering="crispEdges"></rect><rect x="281.625" y="153.5" width="25.925" height="25.925" fill="#1a0f08" shape-rendering="crispEdges"></rect><rect x="179.125" y="179.125" width="25.925" height="25.925" fill="#1a0f08" shape-rendering="crispEdges"></rect><rect x="204.75" y="179.125" width="25.925" height="25.925" fill="#1a0f08" shape-rendering="crispEdges"></rect><rect x="230.375" y="179.125" width="25.925" height="25.925" fill="#c4633a" shape-rendering="crispEdges"></rect><rect x="256" y="179.125" width="25.925" height="25.925" fill="#c4633a" shape-rendering="crispEdges"></rect><rect x="281.625" y="179.125" width="25.925" height="25.925" fill="#1a0f08" shape-rendering="crispEdges"></rect><rect x="307.25" y="179.125" width="25.925" height="25.925" fill="#1a0f08" shape-rendering="crispEdges"></rect><rect x="153.5" y="204.75" width="25.925" height="25.925" fill="#1a0f08" shape-rendering="crispEdges"></rect><rect x="179.125" y="204.75" width="25.925" height="25.925" fill="#1a0f08" shape-rendering="crispEdges"></rect><rect x="204.75" y="204.75" width="25.925" height="25.925" fill="#c4633a" shape-rendering="crispEdges"></rect><rect x="230.375" y="204.75" width="25.925" height="25.925" fill="#c4633a" shape-rendering="crispEdges"></rect><rect x="256" y="204.75" width="25.925" height="25.925" fill="#c4633a" shape-rendering="crispEdges"></rect><rect x="281.625" y="204.75" width="25.925" height="25.925" fill="#c4633a" shape-rendering="crispEdges"></rect><rect x="307.25" y="204.75" width="25.925" height="25.925" fill="#1a0f08" shape-rendering="crispEdges"></rect><rect x="332.875" y="204.75" width="25.925" height="25.925" fill="#1a0f08" shape-rendering="crispEdges"></rect><rect x="127.875" y="230.375" width="25.925" height="25.925" fill="#1a0f08" shape-rendering="crispEdges"></rect><rect x="153.5" y="230.375" width="25.925" height="25.925" fill="#1a0f08" shape-rendering="crispEdges"></rect><rect x="179.125" y="230.375" width="25.925" height="25.925" fill="#c4633a" shape-rendering="crispEdges"></rect><rect x="204.75" y="230.375" width="25.925" height="25.925" fill="#c4633a" shape-rendering="crispEdges"></rect><rect x="230.375" y="230.375" width="25.925" height="25.925" fill="#c4633a" shape-rendering="crispEdges"></rect><rect x="256" y="230.375" width="25.925" height="25.925" fill="#c4633a" shape-rendering="crispEdges"></rect><rect x="281.625" y="230.375" width="25.925" height="25.925" fill="#c4633a" shape-rendering="crispEdges"></rect><rect x="307.25" y="230.375" width="25.925" height="25.925" fill="#c4633a" shape-rendering="crispEdges"></rect><rect x="332.875" y="230.375" width="25.925" height="25.925" fill="#1a0f08" shape-rendering="crispEdges"></rect><rect x="358.5" y="230.375" width="25.925" height="25.925" fill="#1a0f08" shape-rendering="crispEdges"></rect><rect x="102.25" y="256" width="25.925" height="25.925" fill="#1a0f08" shape-rendering="crispEdges"></rect><rect x="127.875" y="256" width="25.925" height="25.925" fill="#1a0f08" shape-rendering="crispEdges"></rect><rect x="153.5" y="256" width="25.925" height="25.925" fill="#c4633a" shape-rendering="crispEdges"></rect><rect x="179.125" y="256" width="25.925" height="25.925" fill="#c4633a" shape-rendering="crispEdges"></rect><rect x="204.75" y="256" width="25.925" height="25.925" fill="#c4633a" shape-rendering="crispEdges"></rect><rect x="230.375" y="256" width="25.925" height="25.925" fill="#c4633a" shape-rendering="crispEdges"></rect><rect x="256" y="256" width="25.925" height="25.925" fill="#c4633a" shape-rendering="crispEdges"></rect><rect x="281.625" y="256" width="25.925" height="25.925" fill="#c4633a" shape-rendering="crispEdges"></rect><rect x="307.25" y="256" width="25.925" height="25.925" fill="#c4633a" shape-rendering="crispEdges"></rect><rect x="332.875" y="256" width="25.925" height="25.925" fill="#c4633a" shape-rendering="crispEdges"></rect><rect x="358.5" y="256" width="25.925" height="25.925" fill="#1a0f08" shape-rendering="crispEdges"></rect><rect x="384.125" y="256" width="25.925" height="25.925" fill="#1a0f08" shape-rendering="crispEdges"></rect><rect x="76.625" y="281.625" width="25.925" height="25.925" fill="#1a0f08" shape-rendering="crispEdges"></rect><rect x="102.25" y="281.625" width="25.925" height="25.925" fill="#1a0f08" shape-rendering="crispEdges"></rect><rect x="127.875" y="281.625" width="25.925" height="25.925" fill="#c4633a" shape-rendering="crispEdges"></rect><rect x="153.5" y="281.625" width="25.925" height="25.925" fill="#c4633a" shape-rendering="crispEdges"></rect><rect x="179.125" y="281.625" width="25.925" height="25.925" fill="#c4633a" shape-rendering="crispEdges"></rect><rect x="204.75" y="281.625" width="25.925" height="25.925" fill="#c4633a" shape-rendering="crispEdges"></rect><rect x="230.375" y="281.625" width="25.925" height="25.925" fill="#c4633a" shape-rendering="crispEdges"></rect><rect x="256" y="281.625" width="25.925" height="25.925" fill="#c4633a" shape-rendering="crispEdges"></rect><rect x="281.625" y="281.625" width="25.925" height="25.925" fill="#c4633a" shape-rendering="crispEdges"></rect><rect x="307.25" y="281.625" width="25.925" height="25.925" fill="#c4633a" shape-rendering="crispEdges"></rect><rect x="332.875" y="281.625" width="25.925" height="25.925" fill="#c4633a" shape-rendering="crispEdges"></rect><rect x="358.5" y="281.625" width="25.925" height="25.925" fill="#c4633a" shape-rendering="crispEdges"></rect><rect x="384.125" y="281.625" width="25.925" height="25.925" fill="#1a0f08" shape-rendering="crispEdges"></rect><rect x="409.75" y="281.625" width="25.925" height="25.925" fill="#1a0f08" shape-rendering="crispEdges"></rect><rect x="76.625" y="307.25" width="25.925" height="25.925" fill="#1a0f08" shape-rendering="crispEdges"></rect><rect x="102.25" y="307.25" width="25.925" height="25.925" fill="#7a4a2a" shape-rendering="crispEdges"></rect><rect x="127.875" y="307.25" width="25.925" height="25.925" fill="#7a4a2a" shape-rendering="crispEdges"></rect><rect x="153.5" y="307.25" width="25.925" height="25.925" fill="#7a4a2a" shape-rendering="crispEdges"></rect><rect x="179.125" y="307.25" width="25.925" height="25.925" fill="#7a4a2a" shape-rendering="crispEdges"></rect><rect x="204.75" y="307.25" width="25.925" height="25.925" fill="#7a4a2a" shape-rendering="crispEdges"></rect><rect x="230.375" y="307.25" width="25.925" height="25.925" fill="#7a4a2a" shape-rendering="crispEdges"></rect><rect x="256" y="307.25" width="25.925" height="25.925" fill="#7a4a2a" shape-rendering="crispEdges"></rect><rect x="281.625" y="307.25" width="25.925" height="25.925" fill="#7a4a2a" shape-rendering="crispEdges"></rect><rect x="307.25" y="307.25" width="25.925" height="25.925" fill="#7a4a2a" shape-rendering="crispEdges"></rect><rect x="332.875" y="307.25" width="25.925" height="25.925" fill="#7a4a2a" shape-rendering="crispEdges"></rect><rect x="358.5" y="307.25" width="25.925" height="25.925" fill="#7a4a2a" shape-rendering="crispEdges"></rect><rect x="384.125" y="307.25" width="25.925" height="25.925" fill="#7a4a2a" shape-rendering="crispEdges"></rect><rect x="409.75" y="307.25" width="25.925" height="25.925" fill="#1a0f08" shape-rendering="crispEdges"></rect><rect x="76.625" y="332.875" width="25.925" height="25.925" fill="#1a0f08" shape-rendering="crispEdges"></rect><rect x="102.25" y="332.875" width="25.925" height="25.925" fill="#7a4a2a" shape-rendering="crispEdges"></rect><rect x="127.875" y="332.875" width="25.925" height="25.925" fill="#f4b860" shape-rendering="crispEdges"></rect><rect x="153.5" y="332.875" width="25.925" height="25.925" fill="#f4b860" shape-rendering="crispEdges"></rect><rect x="179.125" y="332.875" width="25.925" height="25.925" fill="#7a4a2a" shape-rendering="crispEdges"></rect><rect x="204.75" y="332.875" width="25.925" height="25.925" fill="#7a4a2a" shape-rendering="crispEdges"></rect><rect x="230.375" y="332.875" width="25.925" height="25.925" fill="#1a0f08" shape-rendering="crispEdges"></rect><rect x="256" y="332.875" width="25.925" height="25.925" fill="#1a0f08" shape-rendering="crispEdges"></rect><rect x="281.625" y="332.875" width="25.925" height="25.925" fill="#7a4a2a" shape-rendering="crispEdges"></rect><rect x="307.25" y="332.875" width="25.925" height="25.925" fill="#7a4a2a" shape-rendering="crispEdges"></rect><rect x="332.875" y="332.875" width="25.925" height="25.925" fill="#f4b860" shape-rendering="crispEdges"></rect><rect x="358.5" y="332.875" width="25.925" height="25.925" fill="#f4b860" shape-rendering="crispEdges"></rect><rect x="384.125" y="332.875" width="25.925" height="25.925" fill="#7a4a2a" shape-rendering="crispEdges"></rect><rect x="409.75" y="332.875" width="25.925" height="25.925" fill="#1a0f08" shape-rendering="crispEdges"></rect><rect x="76.625" y="358.5" width="25.925" height="25.925" fill="#1a0f08" shape-rendering="crispEdges"></rect><rect x="102.25" y="358.5" width="25.925" height="25.925" fill="#7a4a2a" shape-rendering="crispEdges"></rect><rect x="127.875" y="358.5" width="25.925" height="25.925" fill="#f4b860" shape-rendering="crispEdges"></rect><rect x="153.5" y="358.5" width="25.925" height="25.925" fill="#f4b860" shape-rendering="crispEdges"></rect><rect x="179.125" y="358.5" width="25.925" height="25.925" fill="#7a4a2a" shape-rendering="crispEdges"></rect><rect x="204.75" y="358.5" width="25.925" height="25.925" fill="#7a4a2a" shape-rendering="crispEdges"></rect><rect x="230.375" y="358.5" width="25.925" height="25.925" fill="#1a0f08" shape-rendering="crispEdges"></rect><rect x="256" y="358.5" width="25.925" height="25.925" fill="#1a0f08" shape-rendering="crispEdges"></rect><rect x="281.625" y="358.5" width="25.925" height="25.925" fill="#7a4a2a" shape-rendering="crispEdges"></rect><rect x="307.25" y="358.5" width="25.925" height="25.925" fill="#7a4a2a" shape-rendering="crispEdges"></rect><rect x="332.875" y="358.5" width="25.925" height="25.925" fill="#f4b860" shape-rendering="crispEdges"></rect><rect x="358.5" y="358.5" width="25.925" height="25.925" fill="#f4b860" shape-rendering="crispEdges"></rect><rect x="384.125" y="358.5" width="25.925" height="25.925" fill="#7a4a2a" shape-rendering="crispEdges"></rect><rect x="409.75" y="358.5" width="25.925" height="25.925" fill="#1a0f08" shape-rendering="crispEdges"></rect><rect x="76.625" y="384.125" width="25.925" height="25.925" fill="#1a0f08" shape-rendering="crispEdges"></rect><rect x="102.25" y="384.125" width="25.925" height="25.925" fill="#7a4a2a" shape-rendering="crispEdges"></rect><rect x="127.875" y="384.125" width="25.925" height="25.925" fill="#7a4a2a" shape-rendering="crispEdges"></rect><rect x="153.5" y="384.125" width="25.925" height="25.925" fill="#7a4a2a" shape-rendering="crispEdges"></rect><rect x="179.125" y="384.125" width="25.925" height="25.925" fill="#7a4a2a" shape-rendering="crispEdges"></rect><rect x="204.75" y="384.125" width="25.925" height="25.925" fill="#7a4a2a" shape-rendering="crispEdges"></rect><rect x="230.375" y="384.125" width="25.925" height="25.925" fill="#1a0f08" shape-rendering="crispEdges"></rect><rect x="256" y="384.125" width="25.925" height="25.925" fill="#1a0f08" shape-rendering="crispEdges"></rect><rect x="281.625" y="384.125" width="25.925" height="25.925" fill="#7a4a2a" shape-rendering="crispEdges"></rect><rect x="307.25" y="384.125" width="25.925" height="25.925" fill="#7a4a2a" shape-rendering="crispEdges"></rect><rect x="332.875" y="384.125" width="25.925" height="25.925" fill="#7a4a2a" shape-rendering="crispEdges"></rect><rect x="358.5" y="384.125" width="25.925" height="25.925" fill="#7a4a2a" shape-rendering="crispEdges"></rect><rect x="384.125" y="384.125" width="25.925" height="25.925" fill="#7a4a2a" shape-rendering="crispEdges"></rect><rect x="409.75" y="384.125" width="25.925" height="25.925" fill="#1a0f08" shape-rendering="crispEdges"></rect><rect x="76.625" y="409.75" width="25.925" height="25.925" fill="#1a0f08" shape-rendering="crispEdges"></rect><rect x="102.25" y="409.75" width="25.925" height="25.925" fill="#1a0f08" shape-rendering="crispEdges"></rect><rect x="127.875" y="409.75" width="25.925" height="25.925" fill="#1a0f08" shape-rendering="crispEdges"></rect><rect x="153.5" y="409.75" width="25.925" height="25.925" fill="#1a0f08" shape-rendering="crispEdges"></rect><rect x="179.125" y="409.75" width="25.925" height="25.925" fill="#1a0f08" shape-rendering="crispEdges"></rect><rect x="204.75" y="409.75" width="25.925" height="25.925" fill="#1a0f08" shape-rendering="crispEdges"></rect><rect x="230.375" y="409.75" width="25.925" height="25.925" fill="#1a0f08" shape-rendering="crispEdges"></rect><rect x="256" y="409.75" width="25.925" height="25.925" fill="#1a0f08" shape-rendering="crispEdges"></rect><rect x="281.625" y="409.75" width="25.925" height="25.925" fill="#1a0f08" shape-rendering="crispEdges"></rect><rect x="307.25" y="409.75" width="25.925" height="25.925" fill="#1a0f08" shape-rendering="crispEdges"></rect><rect x="332.875" y="409.75" width="25.925" height="25.925" fill="#1a0f08" shape-rendering="crispEdges"></rect><rect x="358.5" y="409.75" width="25.925" height="25.925" fill="#1a0f08" shape-rendering="crispEdges"></rect><rect x="384.125" y="409.75" width="25.925" height="25.925" fill="#1a0f08" shape-rendering="crispEdges"></rect><rect x="409.75" y="409.75" width="25.925" height="25.925" fill="#1a0f08" shape-rendering="crispEdges"></rect></svg>