<svg xmlns="http://www.w3.org/2000/svg" width="192" height="192" viewBox="0 0 192 192" shape-rendering="crispEdges"><defs><radialGradient id="glow" cx="50%" cy="50%" r="50%"><stop offset="0%" stop-color="#f4b860" stop-opacity="0.35"></stop><stop offset="60%" stop-color="#f4b860" stop-opacity="0.08"></stop><stop offset="100%" stop-color="#f4b860" stop-opacity="0"></stop></radialGradient></defs><rect x="0" y="0" width="192" height="192" rx="38" fill="#1a0f08"></rect><rect x="0" y="0" width="192" height="192" rx="38" fill="url(#glow)"></rect><rect x="115.25" y="19" width="9.925" height="9.925" fill="#f4b860" shape-rendering="crispEdges"></rect><rect x="96" y="28.625" width="9.925" height="9.925" fill="#f4b860" shape-rendering="crispEdges"></rect><rect x="105.625" y="28.625" width="9.925" height="9.925" fill="#f4b860" shape-rendering="crispEdges"></rect><rect x="124.875" y="28.625" width="9.925" height="9.925" fill="#f4b860" shape-rendering="crispEdges"></rect><rect x="86.375" y="38.25" width="9.925" height="9.925" fill="#f4b860" shape-rendering="crispEdges"></rect><rect x="105.625" y="38.25" width="9.925" height="9.925" fill="#f4b860" shape-rendering="crispEdges"></rect><rect x="96" y="47.875" width="9.925" height="9.925" fill="#1a0f08" shape-rendering="crispEdges"></rect><rect x="105.625" y="47.875" width="9.925" height="9.925" fill="#1a0f08" shape-rendering="crispEdges"></rect><rect x="76.75" y="57.5" width="9.925" height="9.925" fill="#1a0f08" shape-rendering="crispEdges"></rect><rect x="86.375" y="57.5" width="9.925" height="9.925" fill="#1a0f08" shape-rendering="crispEdges"></rect><rect x="96" y="57.5" width="9.925" height="9.925" fill="#1a0f08" shape-rendering="crispEdges"></rect><rect x="105.625" y="57.5" width="9.925" height="9.925" fill="#1a0f08" shape-rendering="crispEdges"></rect><rect x="67.125" y="67.125" width="9.925" height="9.925" fill="#1a0f08" shape-rendering="crispEdges"></rect><rect x="76.75" y="67.125" width="9.925" height="9.925" fill="#1a0f08" shape-rendering="crispEdges"></rect><rect x="86.375" y="67.125" width="9.925" height="9.925" fill="#c4633a" shape-rendering="crispEdges"></rect><rect x="96" y="67.125" width="9.925" height="9.925" fill="#c4633a" shape-rendering="crispEdges"></rect><rect x="105.625" y="67.125" width="9.925" height="9.925" fill="#1a0f08" shape-rendering="crispEdges"></rect><rect x="115.25" y="67.125" width="9.925" height="9.925" fill="#1a0f08" shape-rendering="crispEdges"></rect><rect x="57.5" y="76.75" width="9.925" height="9.925" fill="#1a0f08" shape-rendering="crispEdges"></rect><rect x="67.125" y="76.75" width="9.925" height="9.925" fill="#1a0f08" shape-rendering="crispEdges"></rect><rect x="76.75" y="76.75" width="9.925" height="9.925" fill="#c4633a" shape-rendering="crispEdges"></rect><rect x="86.375" y="76.75" width="9.925" height="9.925" fill="#c4633a" shape-rendering="crispEdges"></rect><rect x="96" y="76.75" width="9.925" height="9.925" fill="#c4633a" shape-rendering="crispEdges"></rect><rect x="105.625" y="76.75" width="9.925" height="9.925" fill="#c4633a" shape-rendering="crispEdges"></rect><rect x="115.25" y="76.75" width="9.925" height="9.925" fill="#1a0f08" shape-rendering="crispEdges"></rect><rect x="124.875" y="76.75" width="9.925" height="9.925" fill="#1a0f08" shape-rendering="crispEdges"></rect><rect x="47.875" y="86.375" width="9.925" height="9.925" fill="#1a0f08" shape-rendering="crispEdges"></rect><rect x="57.5" y="86.375" width="9.925" height="9.925" fill="#1a0f08" shape-rendering="crispEdges"></rect><rect x="67.125" y="86.375" width="9.925" height="9.925" fill="#c4633a" shape-rendering="crispEdges"></rect><rect x="76.75" y="86.375" width="9.925" height="9.925" fill="#c4633a" shape-rendering="crispEdges"></rect><rect x="86.375" y="86.375" width="9.925" height="9.925" fill="#c4633a" shape-rendering="crispEdges"></rect><rect x="96" y="86.375" width="9.925" height="9.925" fill="#c4633a" shape-rendering="crispEdges"></rect><rect x="105.625" y="86.375" width="9.925" height="9.925" fill="#c4633a" shape-rendering="crispEdges"></rect><rect x="115.25" y="86.375" width="9.925" height="9.925" fill="#c4633a" shape-rendering="crispEdges"></rect><rect x="124.875" y="86.375" width="9.925" height="9.925" fill="#1a0f08" shape-rendering="crispEdges"></rect><rect x="134.5" y="86.375" width="9.925" height="9.925" fill="#1a0f08" shape-rendering="crispEdges"></rect><rect x="38.25" y="96" width="9.925" height="9.925" fill="#1a0f08" shape-rendering="crispEdges"></rect><rect x="47.875" y="96" width="9.925" height="9.925" fill="#1a0f08" shape-rendering="crispEdges"></rect><rect x="57.5" y="96" width="9.925" height="9.925" fill="#c4633a" shape-rendering="crispEdges"></rect><rect x="67.125" y="96" width="9.925" height="9.925" fill="#c4633a" shape-rendering="crispEdges"></rect><rect x="76.75" y="96" width="9.925" height="9.925" fill="#c4633a" shape-rendering="crispEdges"></rect><rect x="86.375" y="96" width="9.925" height="9.925" fill="#c4633a" shape-rendering="crispEdges"></rect><rect x="96" y="96" width="9.925" height="9.925" fill="#c4633a" shape-rendering="crispEdges"></rect><rect x="105.625" y="96" width="9.925" height="9.925" fill="#c4633a" shape-rendering="crispEdges"></rect><rect x="115.25" y="96" width="9.925" height="9.925" fill="#c4633a" shape-rendering="crispEdges"></rect><rect x="124.875" y="96" width="9.925" height="9.925" fill="#c4633a" shape-rendering="crispEdges"></rect><rect x="134.5" y="96" width="9.925" height="9.925" fill="#1a0f08" shape-rendering="crispEdges"></rect><rect x="144.125" y="96" width="9.925" height="9.925" fill="#1a0f08" shape-rendering="crispEdges"></rect><rect x="28.625" y="105.625" width="9.925" height="9.925" fill="#1a0f08" shape-rendering="crispEdges"></rect><rect x="38.25" y="105.625" width="9.925" height="9.925" fill="#1a0f08" shape-rendering="crispEdges"></rect><rect x="47.875" y="105.625" width="9.925" height="9.925" fill="#c4633a" shape-rendering="crispEdges"></rect><rect x="57.5" y="105.625" width="9.925" height="9.925" fill="#c4633a" shape-rendering="crispEdges"></rect><rect x="67.125" y="105.625" width="9.925" height="9.925" fill="#c4633a" shape-rendering="crispEdges"></rect><rect x="76.75" y="105.625" width="9.925" height="9.925" fill="#c4633a" shape-rendering="crispEdges"></rect><rect x="86.375" y="105.625" width="9.925" height="9.925" fill="#c4633a" shape-rendering="crispEdges"></rect><rect x="96" y="105.625" width="9.925" height="9.925" fill="#c4633a" shape-rendering="crispEdges"></rect><rect x="105.625" y="105.625" width="9.925" height="9.925" fill="#c4633a" shape-rendering="crispEdges"></rect><rect x="115.25" y="105.625" width="9.925" height="9.925" fill="#c4633a" shape-rendering="crispEdges"></rect><rect x="124.875" y="105.625" width="9.925" height="9.925" fill="#c4633a" shape-rendering="crispEdges"></rect><rect x="134.5" y="105.625" width="9.925" height="9.925" fill="#c4633a" shape-rendering="crispEdges"></rect><rect x="144.125" y="105.625" width="9.925" height="9.925" fill="#1a0f08" shape-rendering="crispEdges"></rect><rect x="153.75" y="105.625" width="9.925" height="9.925" fill="#1a0f08" shape-rendering="crispEdges"></rect><rect x="28.625" y="115.25" width="9.925" height="9.925" fill="#1a0f08" shape-rendering="crispEdges"></rect><rect x="38.25" y="115.25" width="9.925" height="9.925" fill="#7a4a2a" shape-rendering="crispEdges"></rect><rect x="47.875" y="115.25" width="9.925" height="9.925" fill="#7a4a2a" shape-rendering="crispEdges"></rect><rect x="57.5" y="115.25" width="9.925" height="9.925" fill="#7a4a2a" shape-rendering="crispEdges"></rect><rect x="67.125" y="115.25" width="9.925" height="9.925" fill="#7a4a2a" shape-rendering="crispEdges"></rect><rect x="76.75" y="115.25" width="9.925" height="9.925" fill="#7a4a2a" shape-rendering="crispEdges"></rect><rect x="86.375" y="115.25" width="9.925" height="9.925" fill="#7a4a2a" shape-rendering="crispEdges"></rect><rect x="96" y="115.25" width="9.925" height="9.925" fill="#7a4a2a" shape-rendering="crispEdges"></rect><rect x="105.625" y="115.25" width="9.925" height="9.925" fill="#7a4a2a" shape-rendering="crispEdges"></rect><rect x="115.25" y="115.25" width="9.925" height="9.925" fill="#7a4a2a" shape-rendering="crispEdges"></rect><rect x="124.875" y="115.25" width="9.925" height="9.925" fill="#7a4a2a" shape-rendering="crispEdges"></rect><rect x="134.5" y="115.25" width="9.925" height="9.925" fill="#7a4a2a" shape-rendering="crispEdges"></rect><rect x="144.125" y="115.25" width="9.925" height="9.925" fill="#7a4a2a" shape-rendering="crispEdges"></rect><rect x="153.75" y="115.25" width="9.925" height="9.925" fill="#1a0f08" shape-rendering="crispEdges"></rect><rect x="28.625" y="124.875" width="9.925" height="9.925" fill="#1a0f08" shape-rendering="crispEdges"></rect><rect x="38.25" y="124.875" width="9.925" height="9.925" fill="#7a4a2a" shape-rendering="crispEdges"></rect><rect x="47.875" y="124.875" width="9.925" height="9.925" fill="#f4b860" shape-rendering="crispEdges"></rect><rect x="57.5" y="124.875" width="9.925" height="9.925" fill="#f4b860" shape-rendering="crispEdges"></rect><rect x="67.125" y="124.875" width="9.925" height="9.925" fill="#7a4a2a" shape-rendering="crispEdges"></rect><rect x="76.75" y="124.875" width="9.925" height="9.925" fill="#7a4a2a" shape-rendering="crispEdges"></rect><rect x="86.375" y="124.875" width="9.925" height="9.925" fill="#1a0f08" shape-rendering="crispEdges"></rect><rect x="96" y="124.875" width="9.925" height="9.925" fill="#1a0f08" shape-rendering="crispEdges"></rect><rect x="105.625" y="124.875" width="9.925" height="9.925" fill="#7a4a2a" shape-rendering="crispEdges"></rect><rect x="115.25" y="124.875" width="9.925" height="9.925" fill="#7a4a2a" shape-rendering="crispEdges"></rect><rect x="124.875" y="124.875" width="9.925" height="9.925" fill="#f4b860" shape-rendering="crispEdges"></rect><rect x="134.5" y="124.875" width="9.925" height="9.925" fill="#f4b860" shape-rendering="crispEdges"></rect><rect x="144.125" y="124.875" width="9.925" height="9.925" fill="#7a4a2a" shape-rendering="crispEdges"></rect><rect x="153.75" y="124.875" width="9.925" height="9.925" fill="#1a0f08" shape-rendering="crispEdges"></rect><rect x="28.625" y="134.5" width="9.925" height="9.925" fill="#1a0f08" shape-rendering="crispEdges"></rect><rect x="38.25" y="134.5" width="9.925" height="9.925" fill="#7a4a2a" shape-rendering="crispEdges"></rect><rect x="47.875" y="134.5" width="9.925" height="9.925" fill="#f4b860" shape-rendering="crispEdges"></rect><rect x="57.5" y="134.5" width="9.925" height="9.925" fill="#f4b860" shape-rendering="crispEdges"></rect><rect x="67.125" y="134.5" width="9.925" height="9.925" fill="#7a4a2a" shape-rendering="crispEdges"></rect><rect x="76.75" y="134.5" width="9.925" height="9.925" fill="#7a4a2a" shape-rendering="crispEdges"></rect><rect x="86.375" y="134.5" width="9.925" height="9.925" fill="#1a0f08" shape-rendering="crispEdges"></rect><rect x="96" y="134.5" width="9.925" height="9.925" fill="#1a0f08" shape-rendering="crispEdges"></rect><rect x="105.625" y="134.5" width="9.925" height="9.925" fill="#7a4a2a" shape-rendering="crispEdges"></rect><rect x="115.25" y="134.5" width="9.925" height="9.925" fill="#7a4a2a" shape-rendering="crispEdges"></rect><rect x="124.875" y="134.5" width="9.925" height="9.925" fill="#f4b860" shape-rendering="crispEdges"></rect><rect x="134.5" y="134.5" width="9.925" height="9.925" fill="#f4b860" shape-rendering="crispEdges"></rect><rect x="144.125" y="134.5" width="9.925" height="9.925" fill="#7a4a2a" shape-rendering="crispEdges"></rect><rect x="153.75" y="134.5" width="9.925" height="9.925" fill="#1a0f08" shape-rendering="crispEdges"></rect><rect x="28.625" y="144.125" width="9.925" height="9.925" fill="#1a0f08" shape-rendering="crispEdges"></rect><rect x="38.25" y="144.125" width="9.925" height="9.925" fill="#7a4a2a" shape-rendering="crispEdges"></rect><rect x="47.875" y="144.125" width="9.925" height="9.925" fill="#7a4a2a" shape-rendering="crispEdges"></rect><rect x="57.5" y="144.125" width="9.925" height="9.925" fill="#7a4a2a" shape-rendering="crispEdges"></rect><rect x="67.125" y="144.125" width="9.925" height="9.925" fill="#7a4a2a" shape-rendering="crispEdges"></rect><rect x="76.75" y="144.125" width="9.925" height="9.925" fill="#7a4a2a" shape-rendering="crispEdges"></rect><rect x="86.375" y="144.125" width="9.925" height="9.925" fill="#1a0f08" shape-rendering="crispEdges"></rect><rect x="96" y="144.125" width="9.925" height="9.925" fill="#1a0f08" shape-rendering="crispEdges"></rect><rect x="105.625" y="144.125" width="9.925" height="9.925" fill="#7a4a2a" shape-rendering="crispEdges"></rect><rect x="115.25" y="144.125" width="9.925" height="9.925" fill="#7a4a2a" shape-rendering="crispEdges"></rect><rect x="124.875" y="144.125" width="9.925" height="9.925" fill="#7a4a2a" shape-rendering="crispEdges"></rect><rect x="134.5" y="144.125" width="9.925" height="9.925" fill="#7a4a2a" shape-rendering="crispEdges"></rect><rect x="144.125" y="144.125" width="9.925" height="9.925" fill="#7a4a2a" shape-rendering="crispEdges"></rect><rect x="153.75" y="144.125" width="9.925" height="9.925" fill="#1a0f08" shape-rendering="crispEdges"></rect><rect x="28.625" y="153.75" width="9.925" height="9.925" fill="#1a0f08" shape-rendering="crispEdges"></rect><rect x="38.25" y="153.75" width="9.925" height="9.925" fill="#1a0f08" shape-rendering="crispEdges"></rect><rect x="47.875" y="153.75" width="9.925" height="9.925" fill="#1a0f08" shape-rendering="crispEdges"></rect><rect x="57.5" y="153.75" width="9.925" height="9.925" fill="#1a0f08" shape-rendering="crispEdges"></rect><rect x="67.125" y="153.75" width="9.925" height="9.925" fill="#1a0f08" shape-rendering="crispEdges"></rect><rect x="76.75" y="153.75" width="9.925" height="9.925" fill="#1a0f08" shape-rendering="crispEdges"></rect><rect x="86.375" y="153.75" width="9.925" height="9.925" fill="#1a0f08" shape-rendering="crispEdges"></rect><rect x="96" y="153.75" width="9.925" height="9.925" fill="#1a0f08" shape-rendering="crispEdges"></rect><rect x="105.625" y="153.75" width="9.925" height="9.925" fill="#1a0f08" shape-rendering="crispEdges"></rect><rect x="115.25" y="153.75" width="9.925" height="9.925" fill="#1a0f08" shape-rendering="crispEdges"></rect><rect x="124.875" y="153.75" width="9.925" height="9.925" fill="#1a0f08" shape-rendering="crispEdges"></rect><rect x="134.5" y="153.75" width="9.925" height="9.925" fill="#1a0f08" shape-rendering="crispEdges"></rect><rect x="144.125" y="153.75" width="9.925" height="9.925" fill="#1a0f08" shape-rendering="crispEdges"></rect><rect x="153.75" y="153.75" width="9.925" height="9.925" fill="#1a0f08" shape-rendering="crispEdges"></rect></svg>