<svg xmlns="http://www.w3.org/2000/svg" width="1200" height="630" viewBox="0 0 1200 630">
  <rect width="1200" height="630" fill="#1a0f08"></rect>
  <defs>
    <radialGradient id="g" cx="35%" cy="55%" r="40%">
      <stop offset="0%" stop-color="#f4b860" stop-opacity="0.25"></stop>
      <stop offset="100%" stop-color="#f4b860" stop-opacity="0"></stop>
    </radialGradient>
  </defs>
  <rect width="1200" height="630" fill="url(#g)"></rect>
  <g transform="translate(120, 175)">
    <rect x="175" y="0" width="17.8" height="17.8" fill="#f4b860" shape-rendering="crispEdges"></rect><rect x="140" y="17.5" width="17.8" height="17.8" fill="#f4b860" shape-rendering="crispEdges"></rect><rect x="157.5" y="17.5" width="17.8" height="17.8" fill="#f4b860" shape-rendering="crispEdges"></rect><rect x="192.5" y="17.5" width="17.8" height="17.8" fill="#f4b860" shape-rendering="crispEdges"></rect><rect x="122.5" y="35" width="17.8" height="17.8" fill="#f4b860" shape-rendering="crispEdges"></rect><rect x="157.5" y="35" width="17.8" height="17.8" fill="#f4b860" shape-rendering="crispEdges"></rect><rect x="140" y="52.5" width="17.8" height="17.8" fill="#1a0f08" shape-rendering="crispEdges"></rect><rect x="157.5" y="52.5" width="17.8" height="17.8" fill="#1a0f08" shape-rendering="crispEdges"></rect><rect x="105" y="70" width="17.8" height="17.8" fill="#1a0f08" shape-rendering="crispEdges"></rect><rect x="122.5" y="70" width="17.8" height="17.8" fill="#1a0f08" shape-rendering="crispEdges"></rect><rect x="140" y="70" width="17.8" height="17.8" fill="#1a0f08" shape-rendering="crispEdges"></rect><rect x="157.5" y="70" width="17.8" height="17.8" fill="#1a0f08" shape-rendering="crispEdges"></rect><rect x="87.5" y="87.5" width="17.8" height="17.8" fill="#1a0f08" shape-rendering="crispEdges"></rect><rect x="105" y="87.5" width="17.8" height="17.8" fill="#1a0f08" shape-rendering="crispEdges"></rect><rect x="122.5" y="87.5" width="17.8" height="17.8" fill="#c4633a" shape-rendering="crispEdges"></rect><rect x="140" y="87.5" width="17.8" height="17.8" fill="#c4633a" shape-rendering="crispEdges"></rect><rect x="157.5" y="87.5" width="17.8" height="17.8" fill="#1a0f08" shape-rendering="crispEdges"></rect><rect x="175" y="87.5" width="17.8" height="17.8" fill="#1a0f08" shape-rendering="crispEdges"></rect><rect x="70" y="105" width="17.8" height="17.8" fill="#1a0f08" shape-rendering="crispEdges"></rect><rect x="87.5" y="105" width="17.8" height="17.8" fill="#1a0f08" shape-rendering="crispEdges"></rect><rect x="105" y="105" width="17.8" height="17.8" fill="#c4633a" shape-rendering="crispEdges"></rect><rect x="122.5" y="105" width="17.8" height="17.8" fill="#c4633a" shape-rendering="crispEdges"></rect><rect x="140" y="105" width="17.8" height="17.8" fill="#c4633a" shape-rendering="crispEdges"></rect><rect x="157.5" y="105" width="17.8" height="17.8" fill="#c4633a" shape-rendering="crispEdges"></rect><rect x="175" y="105" width="17.8" height="17.8" fill="#1a0f08" shape-rendering="crispEdges"></rect><rect x="192.5" y="105" width="17.8" height="17.8" fill="#1a0f08" shape-rendering="crispEdges"></rect><rect x="52.5" y="122.5" width="17.8" height="17.8" fill="#1a0f08" shape-rendering="crispEdges"></rect><rect x="70" y="122.5" width="17.8" height="17.8" fill="#1a0f08" shape-rendering="crispEdges"></rect><rect x="87.5" y="122.5" width="17.8" height="17.8" fill="#c4633a" shape-rendering="crispEdges"></rect><rect x="105" y="122.5" width="17.8" height="17.8" fill="#c4633a" shape-rendering="crispEdges"></rect><rect x="122.5" y="122.5" width="17.8" height="17.8" fill="#c4633a" shape-rendering="crispEdges"></rect><rect x="140" y="122.5" width="17.8" height="17.8" fill="#c4633a" shape-rendering="crispEdges"></rect><rect x="157.5" y="122.5" width="17.8" height="17.8" fill="#c4633a" shape-rendering="crispEdges"></rect><rect x="175" y="122.5" width="17.8" height="17.8" fill="#c4633a" shape-rendering="crispEdges"></rect><rect x="192.5" y="122.5" width="17.8" height="17.8" fill="#1a0f08" shape-rendering="crispEdges"></rect><rect x="210" y="122.5" width="17.8" height="17.8" fill="#1a0f08" shape-rendering="crispEdges"></rect><rect x="35" y="140" width="17.8" height="17.8" fill="#1a0f08" shape-rendering="crispEdges"></rect><rect x="52.5" y="140" width="17.8" height="17.8" fill="#1a0f08" shape-rendering="crispEdges"></rect><rect x="70" y="140" width="17.8" height="17.8" fill="#c4633a" shape-rendering="crispEdges"></rect><rect x="87.5" y="140" width="17.8" height="17.8" fill="#c4633a" shape-rendering="crispEdges"></rect><rect x="105" y="140" width="17.8" height="17.8" fill="#c4633a" shape-rendering="crispEdges"></rect><rect x="122.5" y="140" width="17.8" height="17.8" fill="#c4633a" shape-rendering="crispEdges"></rect><rect x="140" y="140" width="17.8" height="17.8" fill="#c4633a" shape-rendering="crispEdges"></rect><rect x="157.5" y="140" width="17.8" height="17.8" fill="#c4633a" shape-rendering="crispEdges"></rect><rect x="175" y="140" width="17.8" height="17.8" fill="#c4633a" shape-rendering="crispEdges"></rect><rect x="192.5" y="140" width="17.8" height="17.8" fill="#c4633a" shape-rendering="crispEdges"></rect><rect x="210" y="140" width="17.8" height="17.8" fill="#1a0f08" shape-rendering="crispEdges"></rect><rect x="227.5" y="140" width="17.8" height="17.8" fill="#1a0f08" shape-rendering="crispEdges"></rect><rect x="17.5" y="157.5" width="17.8" height="17.8" fill="#1a0f08" shape-rendering="crispEdges"></rect><rect x="35" y="157.5" width="17.8" height="17.8" fill="#1a0f08" shape-rendering="crispEdges"></rect><rect x="52.5" y="157.5" width="17.8" height="17.8" fill="#c4633a" shape-rendering="crispEdges"></rect><rect x="70" y="157.5" width="17.8" height="17.8" fill="#c4633a" shape-rendering="crispEdges"></rect><rect x="87.5" y="157.5" width="17.8" height="17.8" fill="#c4633a" shape-rendering="crispEdges"></rect><rect x="105" y="157.5" width="17.8" height="17.8" fill="#c4633a" shape-rendering="crispEdges"></rect><rect x="122.5" y="157.5" width="17.8" height="17.8" fill="#c4633a" shape-rendering="crispEdges"></rect><rect x="140" y="157.5" width="17.8" height="17.8" fill="#c4633a" shape-rendering="crispEdges"></rect><rect x="157.5" y="157.5" width="17.8" height="17.8" fill="#c4633a" shape-rendering="crispEdges"></rect><rect x="175" y="157.5" width="17.8" height="17.8" fill="#c4633a" shape-rendering="crispEdges"></rect><rect x="192.5" y="157.5" width="17.8" height="17.8" fill="#c4633a" shape-rendering="crispEdges"></rect><rect x="210" y="157.5" width="17.8" height="17.8" fill="#c4633a" shape-rendering="crispEdges"></rect><rect x="227.5" y="157.5" width="17.8" height="17.8" fill="#1a0f08" shape-rendering="crispEdges"></rect><rect x="245" y="157.5" width="17.8" height="17.8" fill="#1a0f08" shape-rendering="crispEdges"></rect><rect x="17.5" y="175" width="17.8" height="17.8" fill="#1a0f08" shape-rendering="crispEdges"></rect><rect x="35" y="175" width="17.8" height="17.8" fill="#7a4a2a" shape-rendering="crispEdges"></rect><rect x="52.5" y="175" width="17.8" height="17.8" fill="#7a4a2a" shape-rendering="crispEdges"></rect><rect x="70" y="175" width="17.8" height="17.8" fill="#7a4a2a" shape-rendering="crispEdges"></rect><rect x="87.5" y="175" width="17.8" height="17.8" fill="#7a4a2a" shape-rendering="crispEdges"></rect><rect x="105" y="175" width="17.8" height="17.8" fill="#7a4a2a" shape-rendering="crispEdges"></rect><rect x="122.5" y="175" width="17.8" height="17.8" fill="#7a4a2a" shape-rendering="crispEdges"></rect><rect x="140" y="175" width="17.8" height="17.8" fill="#7a4a2a" shape-rendering="crispEdges"></rect><rect x="157.5" y="175" width="17.8" height="17.8" fill="#7a4a2a" shape-rendering="crispEdges"></rect><rect x="175" y="175" width="17.8" height="17.8" fill="#7a4a2a" shape-rendering="crispEdges"></rect><rect x="192.5" y="175" width="17.8" height="17.8" fill="#7a4a2a" shape-rendering="crispEdges"></rect><rect x="210" y="175" width="17.8" height="17.8" fill="#7a4a2a" shape-rendering="crispEdges"></rect><rect x="227.5" y="175" width="17.8" height="17.8" fill="#7a4a2a" shape-rendering="crispEdges"></rect><rect x="245" y="175" width="17.8" height="17.8" fill="#1a0f08" shape-rendering="crispEdges"></rect><rect x="17.5" y="192.5" width="17.8" height="17.8" fill="#1a0f08" shape-rendering="crispEdges"></rect><rect x="35" y="192.5" width="17.8" height="17.8" fill="#7a4a2a" shape-rendering="crispEdges"></rect><rect x="52.5" y="192.5" width="17.8" height="17.8" fill="#f4b860" shape-rendering="crispEdges"></rect><rect x="70" y="192.5" width="17.8" height="17.8" fill="#f4b860" shape-rendering="crispEdges"></rect><rect x="87.5" y="192.5" width="17.8" height="17.8" fill="#7a4a2a" shape-rendering="crispEdges"></rect><rect x="105" y="192.5" width="17.8" height="17.8" fill="#7a4a2a" shape-rendering="crispEdges"></rect><rect x="122.5" y="192.5" width="17.8" height="17.8" fill="#1a0f08" shape-rendering="crispEdges"></rect><rect x="140" y="192.5" width="17.8" height="17.8" fill="#1a0f08" shape-rendering="crispEdges"></rect><rect x="157.5" y="192.5" width="17.8" height="17.8" fill="#7a4a2a" shape-rendering="crispEdges"></rect><rect x="175" y="192.5" width="17.8" height="17.8" fill="#7a4a2a" shape-rendering="crispEdges"></rect><rect x="192.5" y="192.5" width="17.8" height="17.8" fill="#f4b860" shape-rendering="crispEdges"></rect><rect x="210" y="192.5" width="17.8" height="17.8" fill="#f4b860" shape-rendering="crispEdges"></rect><rect x="227.5" y="192.5" width="17.8" height="17.8" fill="#7a4a2a" shape-rendering="crispEdges"></rect><rect x="245" y="192.5" width="17.8" height="17.8" fill="#1a0f08" shape-rendering="crispEdges"></rect><rect x="17.5" y="210" width="17.8" height="17.8" fill="#1a0f08" shape-rendering="crispEdges"></rect><rect x="35" y="210" width="17.8" height="17.8" fill="#7a4a2a" shape-rendering="crispEdges"></rect><rect x="52.5" y="210" width="17.8" height="17.8" fill="#f4b860" shape-rendering="crispEdges"></rect><rect x="70" y="210" width="17.8" height="17.8" fill="#f4b860" shape-rendering="crispEdges"></rect><rect x="87.5" y="210" width="17.8" height="17.8" fill="#7a4a2a" shape-rendering="crispEdges"></rect><rect x="105" y="210" width="17.8" height="17.8" fill="#7a4a2a" shape-rendering="crispEdges"></rect><rect x="122.5" y="210" width="17.8" height="17.8" fill="#1a0f08" shape-rendering="crispEdges"></rect><rect x="140" y="210" width="17.8" height="17.8" fill="#1a0f08" shape-rendering="crispEdges"></rect><rect x="157.5" y="210" width="17.8" height="17.8" fill="#7a4a2a" shape-rendering="crispEdges"></rect><rect x="175" y="210" width="17.8" height="17.8" fill="#7a4a2a" shape-rendering="crispEdges"></rect><rect x="192.5" y="210" width="17.8" height="17.8" fill="#f4b860" shape-rendering="crispEdges"></rect><rect x="210" y="210" width="17.8" height="17.8" fill="#f4b860" shape-rendering="crispEdges"></rect><rect x="227.5" y="210" width="17.8" height="17.8" fill="#7a4a2a" shape-rendering="crispEdges"></rect><rect x="245" y="210" width="17.8" height="17.8" fill="#1a0f08" shape-rendering="crispEdges"></rect><rect x="17.5" y="227.5" width="17.8" height="17.8" fill="#1a0f08" shape-rendering="crispEdges"></rect><rect x="35" y="227.5" width="17.8" height="17.8" fill="#7a4a2a" shape-rendering="crispEdges"></rect><rect x="52.5" y="227.5" width="17.8" height="17.8" fill="#7a4a2a" shape-rendering="crispEdges"></rect><rect x="70" y="227.5" width="17.8" height="17.8" fill="#7a4a2a" shape-rendering="crispEdges"></rect><rect x="87.5" y="227.5" width="17.8" height="17.8" fill="#7a4a2a" shape-rendering="crispEdges"></rect><rect x="105" y="227.5" width="17.8" height="17.8" fill="#7a4a2a" shape-rendering="crispEdges"></rect><rect x="122.5" y="227.5" width="17.8" height="17.8" fill="#1a0f08" shape-rendering="crispEdges"></rect><rect x="140" y="227.5" width="17.8" height="17.8" fill="#1a0f08" shape-rendering="crispEdges"></rect><rect x="157.5" y="227.5" width="17.8" height="17.8" fill="#7a4a2a" shape-rendering="crispEdges"></rect><rect x="175" y="227.5" width="17.8" height="17.8" fill="#7a4a2a" shape-rendering="crispEdges"></rect><rect x="192.5" y="227.5" width="17.8" height="17.8" fill="#7a4a2a" shape-rendering="crispEdges"></rect><rect x="210" y="227.5" width="17.8" height="17.8" fill="#7a4a2a" shape-rendering="crispEdges"></rect><rect x="227.5" y="227.5" width="17.8" height="17.8" fill="#7a4a2a" shape-rendering="crispEdges"></rect><rect x="245" y="227.5" width="17.8" height="17.8" fill="#1a0f08" shape-rendering="crispEdges"></rect><rect x="17.5" y="245" width="17.8" height="17.8" fill="#1a0f08" shape-rendering="crispEdges"></rect><rect x="35" y="245" width="17.8" height="17.8" fill="#1a0f08" shape-rendering="crispEdges"></rect><rect x="52.5" y="245" width="17.8" height="17.8" fill="#1a0f08" shape-rendering="crispEdges"></rect><rect x="70" y="245" width="17.8" height="17.8" fill="#1a0f08" shape-rendering="crispEdges"></rect><rect x="87.5" y="245" width="17.8" height="17.8" fill="#1a0f08" shape-rendering="crispEdges"></rect><rect x="105" y="245" width="17.8" height="17.8" fill="#1a0f08" shape-rendering="crispEdges"></rect><rect x="122.5" y="245" width="17.8" height="17.8" fill="#1a0f08" shape-rendering="crispEdges"></rect><rect x="140" y="245" width="17.8" height="17.8" fill="#1a0f08" shape-rendering="crispEdges"></rect><rect x="157.5" y="245" width="17.8" height="17.8" fill="#1a0f08" shape-rendering="crispEdges"></rect><rect x="175" y="245" width="17.8" height="17.8" fill="#1a0f08" shape-rendering="crispEdges"></rect><rect x="192.5" y="245" width="17.8" height="17.8" fill="#1a0f08" shape-rendering="crispEdges"></rect><rect x="210" y="245" width="17.8" height="17.8" fill="#1a0f08" shape-rendering="crispEdges"></rect><rect x="227.5" y="245" width="17.8" height="17.8" fill="#1a0f08" shape-rendering="crispEdges"></rect><rect x="245" y="245" width="17.8" height="17.8" fill="#1a0f08" shape-rendering="crispEdges"></rect>
  </g>
  <g transform="translate(460, 220)" font-family="Fraunces, Georgia, serif" fill="#fce8c4">
    <text x="0" y="0" font-size="22" fill="#f4b860" letter-spacing="3" font-family="JetBrains Mono, monospace">▸ AUBERGE / RP</text>
    <text x="0" y="80" font-size="76" font-style="italic" font-weight="500">A warm light</text>
    <text x="0" y="160" font-size="76" font-style="italic" font-weight="500" fill="#f4b860">in the window.</text>
    <text x="0" y="220" font-size="22" fill="#a89880" font-family="JetBrains Mono, monospace">// Self-hosted chat &amp; roleplay · local LLMs · native image gen</text>
  </g>
</svg>